Coordinates
version=1
nRows=12
nColumns=33
inDegrees=yes

Units are S.I. units (second, meters, Newtons, ...)
Angles are in degrees.

endheader
time	ground_thorax_rot_x	ground_thorax_rot_y	ground_thorax_rot_z	ground_thorax_tx	ground_thorax_ty	ground_thorax_tz	clav_prot_r	clav_elev_r	scapula_abduction_r	scapula_elevation_r	scapula_upward_rot_r	scapula_winging_r	shoulder_elv_r	plane_of_elev_r	axial_rot_r	elbow_flexion_r	pro_sup_r	wrist_flex_r	wrist_dev_r	clav_prot_l	clav_elev_l	scapula_abduction_l	scapula_elevation_l	scapula_upward_rot_l	scapula_winging_l	shoulder_elv_l	plane_of_elev_l	axial_rot_l	elbow_flexion_l	pro_sup_l	wrist_flex_l	wrist_dev_l
      9.48000000	     39.96529493	     11.56166984	     11.73682225	   -234.42458136	    846.42210149	      6.37336166	     12.44207836	     38.54203561	     37.68740076	     45.00000000	    -35.37680348	   2069.20465392	  -2271.83723197	    146.17917775	   -132.81946191	   2173.05844078	     24.37834581	     19.19021166	      4.62021020	      8.33973982	    -45.00000000	    -35.90375917	     45.00000000	    -45.00000000	  -3499.62626008	    797.02458110	     20.55544352	    -59.07977829	    381.39600134	    122.09608821	     -1.75439683	    -11.09118614
      9.49000000	     40.03856162	     11.72764084	     11.72241010	   -233.08174665	    845.96108156	      6.33857953	     12.64012219	     38.71362828	     37.85262822	     45.00000000	    -35.09617156	   2069.23775585	  -2271.94343283	    146.30677233	   -132.68498086	   2172.84581193	     21.21254849	     19.31551701	      5.05233448	      8.12853568	    -45.00000000	    -35.95488155	     45.00000000	    -45.00000000	  -3499.76393746	    797.06856896	     20.49185527	    -58.99788886	    381.55359034	    122.69331845	     -1.78879263	    -11.04895853
      9.50000000	     40.13459265	     11.88657070	     11.74723175	   -231.64228263	    845.46052620	      6.30469852	     12.97314165	     38.84242875	     38.01443571	     45.00000000	    -34.71956731	   2069.35063580	  -2271.99366793	    146.56251295	   -132.37109226	   2172.61734512	     17.41766338	     19.39865126	      5.50108188	      7.76737681	    -45.00000000	    -35.85207411	     45.00000000	    -45.00000000	  -3499.89684333	    797.11231489	     20.49159596	    -58.96317055	    381.62194290	    123.56201904	     -1.80916564	    -11.01960126
      9.51000000	     40.25294703	     12.06009487	     11.61745313	   -230.10921557	    844.91643981	      6.27181555	     12.62619475	     38.87195991	     38.03752021	     45.00000000	    -34.33801666	   2069.21381368	  -2272.20399951	    146.39986853	   -132.45746176	   2172.39232586	     14.89239781	     19.42586240	      6.01795327	      8.19869506	    -45.00000000	    -36.02842898	     45.00000000	    -45.00000000	  -3500.02672045	    797.03947710	     20.53667138	    -58.92622351	    381.71030682	    124.25454401	     -1.79988386	    -10.93678157
      9.52000000	     40.39537006	     12.20263856	     11.50759815	   -228.47954378	    844.32061486	      6.24037412	     12.53591959	     38.94208951	     38.11309165	     45.00000000	    -33.93175938	   2069.20170641	  -2272.33051759	    146.38240448	   -132.45939472	   2172.22290850	     12.67521681	     19.42229513	      6.46789169	      8.30552568	    -45.00000000	    -36.04077971	     45.00000000	    -45.00000000	  -3500.17855462	    796.98504704	     20.60848834	    -58.88577465	    381.76711135	    124.97981166	     -1.80366787	    -10.88041197
      9.53000000	     40.53606950	     12.40445492	     11.48016518	   -226.75393027	    843.66615054	      6.21118480	     12.65769859	     39.08098301	     38.27052559	     45.00000000	    -33.56715066	   2069.19457758	  -2272.43795230	    146.45155446	   -132.39339626	   2172.06590064	     10.54637026	     19.39406367	      6.88627386	      8.20023140	    -45.00000000	    -36.06273746	     45.00000000	    -45.00000000	  -3500.35223748	    796.99200276	     20.60595200	    -58.79246781	    381.87084875	    125.80311192	     -1.82833909	    -10.82673488
      9.54000000	     40.69291365	     12.53641488	     11.35884348	   -224.92867379	    842.94655355	      6.18511119	     12.47315352	     39.12407289	     38.34278964	     45.00000000	    -33.10380649	   2069.16464970	  -2272.60555335	    146.38163312	   -132.41209439	   2171.91272133	      8.72912612	     19.32543880	      7.33703934	      8.41208310	    -45.00000000	    -36.09666480	     45.00000000	    -45.00000000	  -3500.52320315	    796.91543750	     20.71398423	    -58.75542323	    381.89364963	    126.60631826	     -1.82639428	    -10.76744817
      9.55000000	     40.87547964	     12.78699659	     11.34674302	   -222.99963446	    842.15527277	      6.16334090	     12.69250671	     39.31214099	     38.54462878	     45.00000000	    -32.73098886	   2069.11695800	  -2272.75310093	    146.45846835	   -132.31833467	   2171.76348040	      6.92834768	     19.24347327	      7.75078028	      8.21289748	    -45.00000000	    -36.06838753	     45.00000000	    -45.00000000	  -3500.75187187	    796.91916536	     20.70340546	    -58.64249586	    382.01589895	    127.53094800	     -1.85776770	    -10.70646180
      9.56000000	     41.05149588	     12.95990607	     11.26173245	   -220.96140944	    841.28779416	      6.14662528	     12.48467503	     39.35551709	     38.65046833	     45.00000000	    -32.25137966	   2069.16501120	  -2272.85500438	    146.51437037	   -132.36573527	   2171.64844581	      5.35544317	     19.13319618	      8.19224567	      8.40301969	    -45.00000000	    -36.13323132	     45.00000000	    -45.00000000	  -3500.89821756	    796.84337803	     20.79726781	    -58.60450890	    382.11991584	    128.43516126	     -1.87532470	    -10.63693192
      9.57000000	     41.21379231	     13.23692702	     11.33909236	   -218.81065841	    840.33918016	      6.13555424	     12.92320025	     39.61176829	     38.86532806	     45.00000000	    -31.89920853	   2069.13461996	  -2273.04478240	    146.63356271	   -132.14119235	   2171.53857214	      3.72308180	     19.01737882	      8.57248278	      7.99268367	    -45.00000000	    -36.05040681	     45.00000000	    -45.00000000	  -3501.17306382	    796.86928043	     20.72658883	    -58.43324953	    382.23636947	    129.54490460	     -1.91609370	    -10.57430969
      9.58000000	     41.42108246	     13.48848569	     11.23540485	   -216.54255677	    839.30554794	      6.13007869	     12.06171656	     39.44032959	     38.80399183	     45.00000000	    -31.16328006	   2069.26257019	  -2273.11400676	    146.77647846	   -132.39987084	   2171.42190067	      2.48542172	     18.84374317	      8.97982462	      8.73970173	    -45.00000000	    -36.20737880	     45.00000000	    -45.00000000	  -3501.24532479	    796.63394429	     20.99760250	    -58.57674322	    382.17104398	    130.43216803	     -1.91417392	    -10.53602142
      9.59000000	     41.65222253	     13.64030254	     11.26347481	   -214.16018700	    838.18259740	      6.13043923	     13.22036170	     39.85302596	     39.27126933	     45.00000000	    -30.92689934	   2069.20550030	  -2273.34318421	    146.90256160	   -131.82058598	   2171.29584885	      0.92445221	     18.70396640	      9.28755451	      7.67584205	    -45.00000000	    -35.95679271	     45.00000000	    -45.00000000	  -3501.68204323	    796.74872616	     20.80459230	    -58.27600668	    382.39327274	    131.93893101	     -2.01644459	    -10.48170781
